<svg width="17" height="16" viewBox="0 0 17 16" fill="none" xmlns="http://www.w3.org/2000/svg">
<path d="M12.4301 14.4383C11.668 15.1771 10.8359 15.0604 10.0349 14.7105C9.18721 14.3528 8.40953 14.3372 7.5152 14.7105C6.39534 15.1927 5.80431 15.0527 5.1355 14.4383C1.34043 10.5266 1.90036 4.56955 6.2087 4.3518C7.25857 4.40624 7.98959 4.92728 8.60395 4.97394C9.52162 4.7873 10.4004 4.2507 11.3803 4.32069C12.5546 4.41401 13.4411 4.88062 14.0244 5.72052C11.598 7.17478 12.1735 10.371 14.3977 11.2654C13.9544 12.4319 13.3789 13.5906 12.4224 14.4461L12.4301 14.4383ZM8.52619 4.30514C8.40953 2.57091 9.81713 1.13998 11.4347 1C11.6602 3.00641 9.61494 4.49956 8.52619 4.30514Z" fill="white"/>
</svg>
