<svg width="16" height="16" viewBox="0 0 16 16" fill="none" xmlns="http://www.w3.org/2000/svg">
<path d="M14.2333 7.39998H8.12V9.21998H12.46C12.24 11.76 10.1267 12.8466 8.12667 12.8466C5.57333 12.8466 3.33333 10.8333 3.33333 7.99998C3.33333 5.26665 5.46667 3.15331 8.13333 3.15331C10.1933 3.15331 11.4 4.46665 11.4 4.46665L12.6667 3.14665C12.6667 3.14665 11.04 1.33331 8.06667 1.33331C4.28 1.33331 1.35333 4.53331 1.35333 7.99998C1.35333 11.3666 4.10667 14.6666 8.16667 14.6666C11.7333 14.6666 14.3333 12.22 14.3333 8.60665C14.3333 7.83998 14.2333 7.39998 14.2333 7.39998Z" fill="white"/>
</svg>
